<svg width="720" height="720" viewBox="0 0 720 720" fill="none" xmlns="http://www.w3.org/2000/svg">
<rect width="720" height="720" rx="130" fill="#008561"/>
<g clip-path="url(#clip0_304_621)">
<path d="M440.702 270.275C440.611 280.691 438.437 290.984 434.307 300.547C430.178 310.11 424.176 318.75 416.657 325.958C400.031 342.55 375.916 346.569 375.916 360.824C375.916 379.958 406.832 374.118 436.168 403.626C451.191 418.406 461.454 437.338 465.641 457.992C469.828 478.646 467.747 500.08 459.666 519.543C451.584 539.006 437.871 555.61 420.286 567.225C402.701 578.839 382.047 584.933 360.973 584.725C339.907 584.926 319.262 578.829 301.684 567.216C284.107 555.604 270.399 539.005 262.319 519.549C254.239 500.093 252.156 478.667 256.335 458.019C260.515 437.371 270.768 418.442 285.779 403.66C315.286 374.153 345.893 379.992 345.893 360.859C345.893 346.741 321.847 342.584 305.187 325.992C293.896 315.179 286.108 301.228 282.83 285.942C279.551 270.656 280.932 254.738 286.795 240.245C292.658 225.753 302.733 213.352 315.718 204.645C328.703 195.938 344 191.326 359.634 191.405C367.947 191.405 375.435 192.641 381.653 192.641C392.851 192.641 398.828 187.66 398.828 179.76C398.828 175.191 396.733 169.454 396.733 163.168C396.842 156.171 399.727 149.504 404.751 144.634C407.239 142.223 410.178 140.325 413.4 139.049C416.621 137.773 420.062 137.144 423.527 137.199C426.991 137.253 430.411 137.989 433.591 139.364C436.771 140.74 439.649 142.729 442.061 145.217C444.472 147.705 446.37 150.644 447.646 153.865C448.922 157.087 449.55 160.528 449.496 163.992C449.496 179.347 437.439 186.389 428.302 189.756C420.847 192.229 415.008 195.561 415.008 203.05C415.008 217.099 440.771 230.84 440.771 270.275H440.702ZM432.458 478.855C432.458 437.634 402.126 404.485 361.008 404.485C319.889 404.485 289.557 437.737 289.557 478.855C289.557 519.973 319.889 553.191 361.008 553.191C402.126 553.191 432.458 519.492 432.458 478.855ZM407.931 269.313C407.742 260.069 404.828 251.086 399.554 243.492C394.281 235.897 386.882 230.028 378.287 226.621C369.692 223.214 360.282 222.42 351.237 224.339C342.192 226.258 333.915 230.805 327.444 237.409C320.973 244.013 316.595 252.38 314.86 261.462C313.124 270.544 314.109 279.936 317.689 288.46C321.27 296.985 327.288 304.262 334.988 309.381C342.688 314.499 351.727 317.231 360.973 317.233C373.517 317.061 385.486 311.946 394.279 302.998C403.071 294.051 407.978 281.995 407.931 269.45V269.313Z" fill="white"/>
</g>
<defs>
<clipPath id="clip0_304_621">
<rect width="515.267" height="450" fill="white" transform="translate(102 135)"/>
</clipPath>
</defs>
</svg>
